<svg width="352" height="53" viewBox="0 0 352 53" fill="none" xmlns="http://www.w3.org/2000/svg">
<path d="M135.919 0.192799L113.518 33.3648C111.188 36.8756 107.101 38.9976 102.823 38.9976C95.8572 38.9976 90.0912 33.2736 90.0912 26.3672C90.0912 19.3588 95.8572 13.6456 102.872 13.6456C103.567 13.5564 104.5 13.4592 105.151 13.4592C109.986 13.4592 114.913 15.4876 118.26 18.9008L124.95 8.7612C119.746 3.4192 112.03 0 104.311 0C89.9024 0 76.704 11.8904 76.704 26.2696C76.704 40.564 88.5096 52.2656 102.923 52.2656C109.893 52.2656 116.863 49.3172 121.699 44.4288H137.13L137.221 52.266H150.613V0.192799H135.919ZM129.79 32.998L137.13 22.776L137.221 32.998H129.79ZM176.27 52.2652H162.882V12.352H152.471V0.279199L186.675 0.192V12.352H176.27L176.27 52.2652ZM231.302 0.192799L217.915 0.195999L217.822 19.6376H202.016L201.916 0.192H188.539V52.2652H202.015V31.708H217.914V52.2648H231.302L231.302 0.192799ZM338.578 0.192799V24.4252L320.174 0.192799L307.991 0.277599L307.899 19.2696C304.832 8.208 294.326 0.192799 282.613 0.192799C268.206 0.192799 256.399 11.8904 256.399 26.2696C256.399 30.8868 257.792 35.576 260.02 39.6376H246.758V0.192799H233.116V52.266H264.302V44.9796C269.228 49.4996 275.921 52.266 282.614 52.266C294.326 52.266 304.648 44.4288 307.9 33.3648L307.991 52.266H321.476V26.9248L339.781 52.266H351.956L351.972 0.192799H338.581H338.578ZM282.613 39.5464C275.27 39.5464 269.228 33.6488 269.228 26.2696C269.228 18.992 275.27 13.0032 282.613 13.0032C290.054 13.0032 296.096 18.992 296.096 26.2696C296.096 33.6488 290.054 39.5464 282.613 39.5464ZM60.514 39.6384V32.3504H74.8808L74.8552 19.6372H60.514V13.004H76.35L76.3228 0.193599L45.832 0.2784V18.162C42.6716 8.3932 33.558 1.2004 23.1472 0.2784L0 0.193599V52.2648H23.2424C33.558 51.3468 42.6716 44.158 45.832 34.4788V52.2648H76.35L76.3228 39.6384H60.514ZM31.05 34.1988C30.2164 37.7052 26.8672 40.1876 23.242 40.2808H14.6904V12.3512H23.2424C26.8672 12.3512 30.2164 14.944 31.05 18.5328C31.8892 20.9304 32.3536 23.6948 32.3536 26.2704C32.3536 28.95 31.89 31.7104 31.05 34.1988Z" fill="white"/>
</svg>
