<svg width="352" height="97" viewBox="0 0 352 97" fill="none" xmlns="http://www.w3.org/2000/svg">
<path d="M51.3737 40.3623C48.6085 40.3623 46.4255 42.7394 46.4255 45.6986C46.4255 48.6578 48.657 51.0349 51.3737 51.0349C54.1388 51.0349 56.3218 48.6578 56.3218 45.6986C56.3218 42.7394 54.0903 40.3623 51.3737 40.3623ZM33.6669 40.3623C30.9018 40.3623 28.7188 42.7394 28.7188 45.6986C28.7188 48.6578 30.9503 51.0349 33.6669 51.0349C36.4321 51.0349 38.6151 48.6578 38.6151 45.6986C38.6636 42.7394 36.4321 40.3623 33.6669 40.3623Z" fill="white"/>
<path d="M74.9504 0H9.94487C4.46307 0 0 4.46307 0 9.94487V74.9504C0 80.4322 4.46307 84.8953 9.94487 84.8953H64.957L62.3859 76.0176L68.5954 81.742L74.4653 87.1268L84.9438 96.1985V9.94487C84.8953 4.46307 80.4322 0 74.9504 0ZM56.2249 62.8225C56.2249 62.8225 54.4785 60.7365 53.0232 58.9416C59.3782 57.1466 61.8038 53.2172 61.8038 53.2172C59.8148 54.527 57.9228 55.4487 56.2249 56.0794C53.7993 57.0981 51.4708 57.7288 49.1907 58.1654C44.5336 59.0386 40.2646 58.796 36.6262 58.1169C33.8611 57.5832 31.484 56.8556 29.495 56.0309C28.3793 55.5943 27.1665 55.0606 25.9537 54.3815C25.8082 54.2845 25.6626 54.2359 25.5171 54.1389C25.4201 54.0904 25.3716 54.0419 25.323 54.0419C24.4498 53.5568 23.9647 53.2172 23.9647 53.2172C23.9647 53.2172 26.2933 57.0496 32.4542 58.8931C30.9989 60.7365 29.204 62.871 29.204 62.871C18.4829 62.5314 14.4079 55.5458 14.4079 55.5458C14.4079 40.0706 21.3936 27.5061 21.3936 27.5061C28.3793 22.3153 34.9768 22.4609 34.9768 22.4609L35.462 23.043C26.7299 25.5171 22.7519 29.3495 22.7519 29.3495C22.7519 29.3495 23.8192 28.7674 25.6141 27.9912C30.8049 25.7111 34.9283 25.129 36.6262 24.935C36.9173 24.8864 37.1599 24.8379 37.4509 24.8379C40.4101 24.4498 43.7574 24.3528 47.2503 24.7409C51.8589 25.2745 56.8071 26.6329 61.8523 29.3495C61.8523 29.3495 58.0198 25.7111 49.7729 23.237L50.452 22.4609C50.452 22.4609 57.0981 22.3153 64.0353 27.5061C64.0353 27.5061 71.0209 40.0706 71.0209 55.5458C71.0209 55.4972 66.946 62.4829 56.2249 62.8225ZM129.477 20.763H113.372V38.8578L124.093 48.5116V30.9504H129.817C133.455 30.9504 135.25 32.6968 135.25 35.5105V48.9482C135.25 51.7619 133.552 53.6538 129.817 53.6538H113.323V63.8897H129.429C138.064 63.9383 146.165 59.6207 146.165 49.7244V35.2679C146.214 25.1775 138.112 20.763 129.477 20.763V20.763ZM213.888 49.7244V34.8798C213.888 29.5436 223.493 28.3308 226.404 33.667L235.281 30.0772C231.788 22.4123 225.433 20.1808 220.146 20.1808C211.51 20.1808 202.972 25.1775 202.972 34.8798V49.7244C202.972 59.5237 211.51 64.4234 219.951 64.4234C225.385 64.4234 231.885 61.7552 235.475 54.7696L225.967 50.4035C223.638 56.3705 213.888 54.9151 213.888 49.7244V49.7244ZM184.538 36.9173C181.191 36.1896 178.959 34.9769 178.814 32.8909C179.008 27.8942 186.721 27.7001 191.233 32.5028L198.364 27.021C193.901 21.5877 188.856 20.1323 183.665 20.1323C175.757 20.1323 168.093 24.5954 168.093 33.0364C168.093 41.2348 174.399 45.6494 181.336 46.7167C184.878 47.2018 188.807 48.6086 188.71 51.0342C188.419 55.6428 178.911 55.4002 174.593 50.161L167.705 56.613C171.731 61.8038 177.213 64.4234 182.355 64.4234C190.262 64.4234 199.043 59.8633 199.383 51.5193C199.868 40.9923 192.203 38.3241 184.538 36.9173V36.9173ZM152.035 63.8412H162.902V20.763H152.035V63.8412ZM335.264 20.763H319.158V38.8578L329.879 48.5116V30.9504H335.603C339.241 30.9504 341.036 32.6968 341.036 35.5105V48.9482C341.036 51.7619 339.338 53.6538 335.603 53.6538H319.109V63.8897H335.264C343.899 63.9383 352 59.6207 352 49.7244V35.2679C352 25.1775 343.899 20.763 335.264 20.763V20.763ZM256.238 20.1808C247.312 20.1808 238.434 25.032 238.434 34.9768V49.6759C238.434 59.5237 247.361 64.4719 256.335 64.4719C265.261 64.4719 274.139 59.5237 274.139 49.6759V34.9768C274.139 25.0805 265.164 20.1808 256.238 20.1808V20.1808ZM263.224 49.6759C263.224 52.7806 259.731 54.3815 256.287 54.3815C252.794 54.3815 249.301 52.8776 249.301 49.6759V34.9768C249.301 31.8236 252.697 30.1257 256.093 30.1257C259.634 30.1257 263.224 31.6295 263.224 34.9768V49.6759ZM313.142 34.9768C312.9 24.8864 306.011 20.8115 297.133 20.8115H279.912V63.8897H290.924V50.2095H292.864L302.858 63.8897H316.441L304.701 49.0937C309.892 47.4443 313.142 42.9327 313.142 34.9768V34.9768ZM297.327 40.7982H290.924V30.9504H297.327C304.168 30.9504 304.168 40.7982 297.327 40.7982Z" fill="white"/>
</svg>
