<svg width="218" height="244" viewBox="0 0 218 244" fill="none" xmlns="http://www.w3.org/2000/svg">
<path d="M19 121C17.3431 121 15.9953 122.344 16.0445 124C16.8074 149.699 27.3493 174.185 45.5822 192.418C64.5234 211.359 90.2131 222 117 222C143.787 222 169.477 211.359 188.418 192.418C206.651 174.185 217.193 149.699 217.955 124C218.005 122.344 216.657 121 215 121L117 121L19 121Z" fill="#9C66D1"/>
<path d="M64.0153 40.3914C63.729 39.3407 64.3359 38.2542 65.3806 37.9469L70.1694 36.5384C71.1941 36.237 72.2747 36.7939 72.6239 37.8032L94.1906 100.14C94.5633 101.217 93.9616 102.388 92.8685 102.712L83.8413 105.386C82.7657 105.704 81.6385 105.076 81.3436 103.994L64.0153 40.3914Z" fill="#ED7960"/>
<rect x="75" y="82.8489" width="13.5517" height="70" transform="rotate(-16.5 75 82.8489)" fill="#DAB24B"/>
<rect x="93" y="95" width="11" height="6" fill="#DB725B"/>
<rect x="87" y="72" width="5" height="13" rx="2" fill="#2F2821"/>
<rect x="88" y="71" width="23" height="26" rx="10" fill="#ED7960"/>
<path d="M82 103C82 100.791 83.7909 99 86 99H116C118.209 99 120 100.791 120 103V153C120 155.209 118.209 157 116 157H86C83.7909 157 82 155.209 82 153V103Z" fill="#EABF50"/>
<path d="M106.062 103.496C105.764 101.109 107.625 99 110.031 99H116C118.209 99 120 100.791 120 103V142.53C120 145.237 117.367 147.162 114.787 146.341L111.674 145.351C110.069 144.84 108.956 143.379 108.89 141.696L108 119L106.062 103.496Z" fill="#F5CD66"/>
<path d="M120 221C120 219.818 119.56 218.648 118.706 217.556C117.852 216.464 116.599 215.472 115.021 214.636C113.442 213.8 111.568 213.137 109.506 212.685C107.443 212.233 105.232 212 103 212C100.768 212 98.5569 212.233 96.4944 212.685C94.4318 213.137 92.5578 213.8 90.9792 214.636C89.4006 215.472 88.1484 216.464 87.294 217.556C86.4397 218.648 86 219.818 86 221L103 221H120Z" fill="#4C260B"/>
<path d="M65.4514 153L81.42 166.638L32.4717 216.638L20.731 208.866L65.4514 153Z" fill="#0A1345"/>
<rect x="61" y="156" width="30" height="18" fill="#0A1345"/>
<rect x="81" y="168" width="44" height="8" rx="4" fill="#4D260B"/>
<path d="M73 158C73 155.791 74.7909 154 77 154H116C118.209 154 120 155.791 120 158V170C120 172.209 118.209 174 116 174H77C74.7909 174 73 172.209 73 170V158Z" fill="#182466"/>
<path d="M62.862 157.641L83.842 156.725L84.3557 228.236L68.6973 227.975L62.862 157.641Z" fill="#182466"/>
<path d="M108 119H120V142L108 140L108 119Z" fill="#ED7960"/>
<path d="M92 151C89.7909 151 88 149.209 88 147V143.5C88 141.291 89.7909 139.5 92 139.5H116C118.209 139.5 120 141.291 120 143.5V147C120 149.209 118.209 151 116 151H92Z" fill="#ED7960"/>
<path d="M59.6638 152.125C59.8862 152.042 60.1214 152 60.3585 152H95.6554C97.693 152 98.4257 154.691 96.6694 155.724L86.4694 161.724C86.1621 161.905 85.812 162 85.4554 162H44.1585C41.9273 162 41.3715 158.899 43.4638 158.125L59.6638 152.125Z" fill="#3C3B3B"/>
<path d="M41 130C41 128.895 41.8954 128 43 128H86C87.1046 128 88 128.895 88 130V158C88 159.105 87.1046 160 86 160H43C41.8954 160 41 159.105 41 158V130Z" fill="#2C2C2C"/>
<rect x="182.054" y="57.2225" width="0.945946" height="0.939622" fill="#C4C4C4"/>
<ellipse cx="142.662" cy="50.0338" rx="14.6622" ry="15.034" fill="#4E391F"/>
<path d="M128.395 49.2642C129.277 45.1423 135.111 45.0118 136.176 49.0901L146.994 90.5011C147.656 93.0358 145.744 95.5121 143.124 95.5121H123.446C120.9 95.5121 119.002 93.165 119.535 90.6753L128.395 49.2642Z" fill="#4E391F"/>
<path d="M145.187 46.0094C146.368 42.2898 151.632 42.2898 152.812 46.0094L167.346 91.7897C168.165 94.369 166.24 97 163.533 97H134.467C131.76 97 129.835 94.369 130.654 91.7897L145.187 46.0094Z" fill="#4E391F"/>
<rect width="12.8155" height="65.7927" rx="2" transform="matrix(0.978237 0.207489 -0.208335 0.978057 164.707 15.9999)" fill="#E5D9D8"/>
<rect width="12.8155" height="65.7927" rx="2" transform="matrix(0.950923 -0.309428 0.308605 0.95119 103 22.9655)" fill="#E5D9D8"/>
<rect x="138" y="64.9999" width="11.3514" height="7.51698" fill="#B35A28"/>
<path d="M132 56.5C132 50.1487 137.149 45 143.5 45V45C149.851 45 155 50.1487 155 56.5V56.5C155 62.8513 149.851 68 143.5 68V68C137.149 68 132 62.8513 132 56.5V56.5Z" fill="#C26632"/>
<path d="M143.78 127.766C143.536 125.405 145.391 123.355 147.764 123.36L160.305 123.389C162.426 123.394 164.177 125.054 164.294 127.172L165.565 150.125L165.625 176.4C165.625 176.619 165.644 176.838 165.68 177.054L174.004 226.567C174.397 228.901 172.688 231.061 170.326 231.217L150.847 232.5C148.458 232.657 146.464 230.694 146.585 228.302L149.058 179.416C149.069 179.212 149.063 179.007 149.043 178.804L143.78 127.766Z" fill="#2F3949"/>
<path d="M126.197 129.405C126.181 127.034 128.219 125.169 130.579 125.395L143.054 126.588C145.17 126.79 146.758 128.613 146.669 130.737L145.736 152.92L143.276 178.303C143.254 178.527 143.251 178.754 143.267 178.979L146.79 227.454C146.961 229.818 145.051 231.812 142.682 231.743L123.198 231.173C120.797 231.103 119 228.949 119.361 226.574L126.491 179.715C126.522 179.507 126.538 179.297 126.536 179.086L126.197 129.405Z" fill="#2F3949"/>
<path d="M125.43 76.39C125.2 74.0379 127.048 71.9999 129.411 71.9999H161.067C163.5 71.9999 165.366 74.17 165.035 76.5806C161.469 102.571 160.952 115.325 163.325 124.159C164.101 127.048 162.118 130.256 159.126 130.256H130.345C127.675 130.256 125.754 127.69 126.508 125.128L129.063 116.438C129.207 115.945 129.256 115.43 129.206 114.919L125.43 76.39Z" fill="#E6D9D8"/>
<path d="M133.26 51.5109C135.6 46.6554 142.71 45.1463 146 45H129.67C129.232 45 128.845 45.2848 128.715 45.7029L124.667 58.7143C118.336 72.2009 116.599 81.0649 114.163 96.667C114.075 97.2336 114.48 97.7625 115.05 97.8198L125.867 98.9063C126.392 98.959 126.867 98.5954 126.954 98.0753L128.894 86.4019C128.92 86.2455 128.982 86.0998 129.073 85.9695C132.299 81.307 131.779 70.8137 131.087 65.9465C131.073 65.8491 131.074 65.7539 131.089 65.6566L133.179 51.7791C133.193 51.6864 133.22 51.5954 133.26 51.5109Z" fill="#4E391F"/>
<path d="M146 56C146.538 55.2454 147.892 54.1889 149 56" stroke="#3A3A3A" stroke-linecap="round"/>
<path d="M138 56C138.538 55.2454 139.892 54.1889 141 56" stroke="#3A3A3A" stroke-linecap="round"/>
<path d="M90 84C90.5385 83.2454 91.8923 82.1889 93 84" stroke="#524F4F" stroke-linecap="round"/>
<path d="M97 84C97.5385 83.2454 98.8923 82.1889 100 84" stroke="#524F4F" stroke-linecap="round"/>
<path d="M154 72C154 72.5253 153.715 73.0454 153.163 73.5307C152.61 74.016 151.8 74.457 150.778 74.8284C149.757 75.1999 148.544 75.4945 147.21 75.6955C145.875 75.8965 144.445 76 143 76C141.555 76 140.125 75.8965 138.79 75.6955C137.456 75.4945 136.243 75.1999 135.222 74.8284C134.2 74.457 133.39 74.016 132.837 73.5307C132.285 73.0454 132 72.5253 132 72L143 72H154Z" fill="#B25A28"/>
<path d="M106 99C106 99.5253 105.806 100.045 105.429 100.531C105.052 101.016 104.5 101.457 103.803 101.828C103.107 102.2 102.28 102.494 101.37 102.696C100.46 102.897 99.4849 103 98.5 103C97.5151 103 96.5398 102.897 95.6299 102.696C94.7199 102.494 93.8931 102.2 93.1967 101.828C92.5003 101.457 91.9478 101.016 91.5709 100.531C91.194 100.045 91 99.5253 91 99L98.5 99H106Z" fill="#DB725B"/>
<rect x="99" y="174" width="7" height="43" rx="3.5" fill="#4C260B"/>
<path d="M102.584 15.3874C102.248 13.4394 103.386 11.5381 105.261 10.913L106.324 10.5587C108.162 9.94601 110.175 10.7386 111.102 12.4399L114.695 19.0363C115.893 21.2347 114.799 23.9805 112.418 24.7541L109.028 25.8556C106.711 26.6086 104.264 25.1323 103.85 22.7311L102.584 15.3874Z" fill="#B25A28"/>
<path d="M167.27 9.65771C167.805 7.75483 169.651 6.52846 171.612 6.77161L172.724 6.90943C174.647 7.14772 176.122 8.7296 176.226 10.6642L176.63 18.1651C176.765 20.6649 174.596 22.6725 172.114 22.3457L168.58 21.8804C166.164 21.5624 164.591 19.1767 165.251 16.8311L167.27 9.65771Z" fill="#B25A28"/>
<path d="M106 15.922C106.8 16.0757 108.52 16.1065 109 15" stroke="#B25A28"/>
<path d="M109 15.5963C109.833 16.1285 111.6 16.5542 112 14" stroke="#B25A28"/>
<rect x="111" y="10" width="3" height="6" rx="1.5" fill="#C76731"/>
<rect x="100.71" y="9.74268" width="10.2632" height="8.56898" rx="2" transform="rotate(-15.5 100.71 9.74268)" fill="#C76D39"/>
<rect x="166.795" y="3.42407" width="10.6589" height="7.92539" rx="2" transform="rotate(9.5 166.795 3.42407)" fill="#C06B3B"/>
<rect x="97.6559" y="7.11316" width="13.3104" height="9.5205" rx="2" transform="rotate(-18 97.6559 7.11316)" fill="#BD622E"/>
<rect x="166.219" y="0.330933" width="11.9213" height="8.28774" rx="2" transform="rotate(8.5 166.219 0.330933)" fill="#BD622E"/>
<rect x="164" y="6" width="5" height="4" rx="2" fill="#C76731"/>
<rect x="108" y="10.3087" width="5" height="4" rx="2" transform="rotate(-27.5 108 10.3087)" fill="#C76731"/>
<rect x="58.8045" y="28.4774" width="12.2702" height="11.9574" rx="4" transform="rotate(-15.5 58.8045 28.4774)" fill="#F0866E"/>
<rect x="57" y="26.7006" width="13.8472" height="9.02739" rx="4" transform="rotate(-15.5 57 26.7006)" fill="#ED7960"/>
<rect x="81.8454" y="152.373" width="13.8472" height="9.0274" rx="4" transform="rotate(-93.5 81.8454 152.373)" fill="#F37E65"/>
<rect x="70" y="27" width="3" height="6" rx="1.5" fill="#F0836A"/>
<path d="M50.5769 238.913C50.1716 237.38 51.0288 235.797 52.5338 235.298L64.3688 231.378C65.9987 230.838 66.8437 229.043 66.2213 227.442L63.4038 220.199C62.6304 218.21 64.1215 216.073 66.2548 216.112L82.4709 216.409C84.1103 216.439 85.4219 217.78 85.4158 219.42L85.3445 238.781C85.3386 240.393 84.0597 241.712 82.4486 241.768L54.0072 242.755C52.6078 242.804 51.3608 241.878 51.0029 240.524L50.5769 238.913Z" fill="#D75555"/>
<path d="M3.46617 200.11C4.334 198.784 6.08435 198.361 7.46186 199.146L18.2946 205.318C19.7865 206.168 21.686 205.594 22.4587 204.061L25.9565 197.12C26.9168 195.215 29.5031 194.893 30.9015 196.504L41.531 208.754C42.6056 209.993 42.4868 211.865 41.2643 212.957L26.8283 225.86C25.6263 226.934 23.7903 226.866 22.6707 225.706L2.9062 205.231C1.93369 204.223 1.78753 202.677 2.55405 201.505L3.46617 200.11Z" fill="#D75555"/>
<rect x="122" y="231" width="20" height="8" rx="3" fill="#292929"/>
<rect x="151" y="231" width="20" height="8" rx="3" fill="#292929"/>
<rect x="88.401" y="64.6346" width="22.5239" height="12.7047" rx="2" transform="rotate(8.5 88.401 64.6346)" fill="#2F2821"/>
<rect width="8" height="15" rx="3" transform="matrix(-0.978148 -0.207912 -0.207912 0.978148 114.472 71.9955)" fill="#2F2821"/>
<circle cx="109.5" cy="86.5" r="3.5" fill="#ED7960"/>
</svg>
