<svg width="352" height="61" viewBox="0 0 352 61" fill="none" xmlns="http://www.w3.org/2000/svg">
<path fill-rule="evenodd" clip-rule="evenodd" d="M96.5564 44.164C88.4371 48.6094 87.6549 49.5862 88.142 54.6631C88.5189 58.5861 87.854 60.4304 85.9269 60.8258C81.8806 61.6522 80.5508 59.4823 82.6646 55.5092C83.6868 53.5861 84.2593 51.8473 83.9357 51.647C78.2343 48.0942 69.3453 40.4324 67.3168 37.3197C65.8732 35.0997 63.9621 29.3539 63.0696 24.5453C61.0785 13.8209 63.5763 11.1948 74.8778 12.1215C82.5526 12.7494 82.7766 12.558 83.1659 4.94625C83.2655 2.99636 84.7482 1.12698 86.4584 0.790665C88.9598 0.296932 89.5696 1.44716 89.5696 6.6421C89.5696 13.0392 89.6407 13.1036 96.5332 12.6939C105.177 12.1805 109.22 15.2628 108.235 21.6169C107.828 24.2358 107.047 29.2787 106.501 32.8207C105.652 38.3198 104.199 39.978 96.5564 44.164ZM87.79 16.54V29.9567C87.79 37.3359 88.2185 43.3734 88.7411 43.3734C92.8301 43.3734 98.3377 36.8528 99.3528 30.8118C101.067 20.6026 99.2586 16.54 93.0043 16.54H87.79ZM73.3756 17.3146C69.6546 15.0034 72.8031 30.1141 77.3881 36.5809L81.5677 42.4789L82.0957 29.293C82.6681 14.9264 82.1099 13.1179 78.133 16.438C76.6858 17.6473 74.5454 18.0409 73.3756 17.3146Z" fill="white"/>
<path d="M47.0605 11.4846C51.2455 13.4721 51.3397 13.9963 51.0801 33.9638C50.8401 52.5719 50.4792 54.6487 47.0676 57.0512C41.7893 60.7721 41.2169 58.3821 41.8942 35.5076C42.2053 25.0712 41.8658 16.5347 41.1422 16.5365C38.8257 16.5436 26.9518 35.9172 28.1091 37.8009C28.7225 38.8009 27.6131 40.4825 25.6487 41.5433C22.4877 43.2446 21.1437 42.1963 14.0432 32.4897L6.01282 21.5114V36.021C6.01282 50.6684 4.96392 53.1872 1.31586 47.3107C-0.102824 45.0263 -0.175717 41.1337 1.06341 33.8994C2.23498 27.048 2.20654 21.9729 0.974521 18.4166C-0.621947 13.8102 -0.397944 12.9802 2.70432 11.9873C7.02972 10.6081 11.3587 14.2485 18.0379 24.887C20.7117 29.1481 23.3286 32.6347 23.8513 32.6365C24.374 32.6382 26.1731 30.4254 27.8478 27.7206C29.5243 25.0158 33.5688 19.7976 36.8364 16.1268C42.1716 10.1286 43.2116 9.65817 47.0605 11.4846Z" fill="white"/>
<path d="M204.229 34.4414C199.941 44.0156 193.528 52.6112 188.636 55.3464C182.78 58.62 179.982 58.087 173.425 52.4359C166.781 46.7168 168.659 42.9744 175.807 47.6882C178.174 49.2481 181.384 50.5254 182.94 50.5254C185.566 50.5254 190.403 41.665 193.584 31.0229C194.855 26.7743 194.762 26.7385 185.087 27.742C175.398 28.7492 175.27 28.6991 172.049 22.6795C168.047 15.2055 169.007 14.2485 183.313 11.4345C192.881 9.55442 195.144 9.64744 199.923 12.1358C202.965 13.7172 205.057 15.413 204.572 15.9014C204.087 16.3898 197.923 16.7708 190.874 16.7475L178.06 16.7082L181.37 20.3969C184.087 23.4201 186.117 23.9121 192.68 23.1339C198.039 22.4988 201.802 23.0122 204.08 24.6902C207.392 27.132 207.395 27.3753 204.229 34.4414Z" fill="white"/>
<path fill-rule="evenodd" clip-rule="evenodd" d="M336.682 34.1105C336.682 34.9191 340.13 39.1981 344.341 43.622L352 51.6631L347.836 53.638C342.798 56.0315 339.356 52.8992 331.367 38.6578C325.367 27.9621 323.765 26.6151 318.887 28.1732C315.925 29.1177 315.349 30.8887 315.349 39.021C315.349 49.0853 313.943 50.8187 309.829 45.8295C308.177 43.826 307.607 39.0156 308.005 30.3878C308.399 21.7976 307.886 17.4255 306.373 16.4846C304.853 15.5418 305.88 14.2216 309.669 12.2503C316.602 8.6403 317.786 8.65282 316.387 12.3218C315.548 14.5222 315.836 14.8048 317.53 13.4417C321.056 10.6153 338.163 9.55263 340.211 12.0338C342.759 15.125 338.432 23.311 333.6 24.5346C329.637 25.5381 329.635 25.5489 333.155 29.0909C335.095 31.0444 336.682 33.3019 336.682 34.1105ZM317.571 17.0123C316.348 17.9765 315.349 20.1947 315.349 21.9389C315.349 24.7922 316.051 24.8977 322.424 23.0033C330.478 20.6115 334.06 17.7171 332.37 14.964C331.075 12.8603 321.075 14.2413 317.571 17.0123Z" fill="white"/>
<path d="M126.013 20.2287L125.487 34.03C124.532 59.0172 119.47 54.3232 119.38 28.37C119.307 7.07505 120.734 6.43281 137.517 20.1983C144.664 26.0569 150.895 30.8511 151.368 30.8511C151.839 30.8511 151.883 23.6544 151.466 14.8585C150.84 1.64216 151.133 -0.896272 153.156 0.24325C156.435 2.08938 157.114 45.8885 153.912 49.1103C152.269 50.7632 151.791 50.0531 151.791 45.9637C151.791 41.5415 149.695 39.021 138.902 30.4558L126.013 20.2287Z" fill="white"/>
<path d="M236.181 28.1642C235.493 35.5398 235.351 43.1873 235.861 45.1587C236.866 49.0137 234.404 49.783 230.011 46.9851C227.895 45.6363 227.474 42.1372 227.97 30.0193L228.596 14.7511H223.211C220.245 14.7511 216.558 16.023 215.013 17.5776C211.186 21.4273 208.775 20.125 210.617 15.1984C212.062 11.3344 212.969 11.1734 233.305 11.1734C252.991 11.1734 254.555 11.4274 255.417 14.7493C256.605 19.311 254.191 20.8817 251.33 17.413C250.123 15.9497 246.502 14.7511 243.282 14.7511H237.428L236.181 28.1642Z" fill="white"/>
<path d="M297.436 40.0979C299.907 35.6579 301.998 39.1337 299.786 44.012C298.037 47.8814 296.748 48.2588 284.831 48.3966C274.811 48.5136 269.899 48.597 267.457 46.1673C265.083 43.806 265.042 39.0711 264.911 29.6866C264.639 10.5687 265.713 9.42564 282.668 10.778C294.165 11.6939 297.571 13.4685 297.571 18.5489C297.571 22.8244 296.65 22.7689 292.136 18.227C289.484 15.5579 286.678 14.6975 281.914 15.0964C276.146 15.5776 275.275 16.2735 274.762 20.8191C274.186 25.9102 274.292 25.9764 281.428 25.0158C287.603 24.1804 288.682 24.5185 288.682 27.2734C288.682 30.0175 287.599 30.3645 281.571 29.5506L274.459 28.59V35.86C274.459 41.6113 275.22 43.3734 278.091 44.2911C283.581 46.0442 295.574 43.4449 297.436 40.0979Z" fill="white"/>
</svg>
