<svg width="31" height="30" viewBox="0 0 31 30" fill="none" xmlns="http://www.w3.org/2000/svg">
<circle cx="15.575" cy="15.25" r="14.75" fill="#8F79EB"/>
<path d="M15.3355 8.56439C14.1561 8.56439 12.9767 8.54179 11.7986 8.56965C9.95739 8.61285 8.82524 9.47488 8.49012 11.0605C8.41905 11.3972 8.36616 11.7448 8.36454 12.0876C8.35364 14.32 8.32377 16.5533 8.36939 18.7841C8.41461 21.0048 9.53748 22.1922 11.679 22.271C14.0984 22.3598 16.5218 22.3525 18.9411 22.2726C20.7254 22.2136 21.7857 21.3548 22.1264 19.8128C22.1878 19.5375 22.2451 19.2544 22.2467 18.9742C22.2601 16.4297 22.3994 13.8816 22.1696 11.3415C22.0336 9.83665 21.0254 8.8539 19.5262 8.64798C18.1332 8.457 16.7317 8.59306 15.3355 8.56439ZM6.72485 11.4622C6.87586 10.6757 7.01678 9.88632 7.44477 9.1866C8.42268 7.59093 9.95133 6.97882 11.7138 6.93562C14.1178 6.87707 16.5246 6.87828 18.9286 6.93683C20.5606 6.9764 22.013 7.5138 23.0066 8.92819C23.6462 9.83908 23.8848 10.8816 23.901 11.9592C23.9357 14.2696 23.9522 16.5815 23.8989 18.8911C23.8561 20.7512 23.2093 22.3384 21.4679 23.284C20.6632 23.7209 19.7814 23.9106 18.8814 23.9211C16.5081 23.9482 14.1335 23.9716 11.7614 23.9175C9.98081 23.8767 8.43399 23.2759 7.44517 21.6637C7.01637 20.9644 6.87586 20.1746 6.72485 19.3881C6.72485 16.7463 6.72485 14.1044 6.72485 11.4622" fill="#231F33"/>
<path d="M18.116 15.4322C18.1188 13.906 16.8623 12.6559 15.3175 12.6483C13.7828 12.6398 12.5077 13.8963 12.5053 15.4185C12.5025 16.9447 13.7594 18.1948 15.3038 18.2029C16.8385 18.2109 18.1136 16.9548 18.116 15.4322V15.4322ZM19.7694 15.454C19.7622 17.852 17.7724 19.8227 15.3288 19.8522C12.878 19.8817 10.845 17.858 10.8523 15.3967C10.8592 12.9769 12.9244 10.9529 15.3393 10.9989C17.8172 11.0457 19.7763 13.0165 19.7694 15.454Z" fill="#231F33"/>
<path d="M19.8902 9.83393C20.4817 9.82626 20.9816 10.316 20.9788 10.8991C20.9755 11.4583 20.4959 11.9371 19.9229 11.9537C19.3334 11.9702 18.8227 11.4894 18.8122 10.9087C18.8017 10.3213 19.283 9.8416 19.8902 9.83393" fill="#231F33"/>
</svg>
