<svg width="31" height="30" viewBox="0 0 31 30" fill="none" xmlns="http://www.w3.org/2000/svg">
<circle cx="15.5" cy="15.25" r="14.75" fill="#8F79EB"/>
<path d="M12.0036 8.5855C12.0036 9.51717 11.4109 10.2793 10.3102 10.2793C9.29403 10.2793 8.6167 9.51718 8.6167 8.67029C8.6167 7.73862 9.29403 6.89217 10.3102 6.89217C11.3264 6.89217 12.0036 7.65428 12.0036 8.5855Z" fill="#231F33"/>
<path d="M8.6167 22.1338H12.0036L12.0036 11.126H8.6167L8.6167 22.1338" fill="#231F33"/>
<path d="M20.1327 11.2955C18.3545 11.2955 17.3383 12.3115 16.9152 12.9889H16.8302L16.661 11.5494H13.6125C13.6125 12.4811 13.6973 13.5819 13.6973 14.8518L13.6973 22.1338H17.0844V16.1221C17.0844 15.7834 17.0844 15.5291 17.1691 15.2752C17.4229 14.6827 17.8464 13.9205 18.7779 13.9205C19.9633 13.9205 20.4713 14.9366 20.4713 16.2917V22.1338H23.8585V15.8682C23.8585 12.735 22.2495 11.2955 20.1327 11.2955" fill="#231F33"/>
</svg>
