<svg width="31" height="30" viewBox="0 0 31 30" fill="none" xmlns="http://www.w3.org/2000/svg">
<circle cx="15.425" cy="15.25" r="14.75" fill="#8F79EB"/>
<path d="M23.7833 20.7529C22.9994 20.2374 22.4534 19.9489 21.995 19.5562C21.5355 19.1622 21.1181 18.6972 20.7613 18.2047C19.6664 16.6948 19.5418 15.5235 21.6041 14.8492C21.7795 14.7918 21.9516 14.6855 21.827 14.4388C19.8061 14.4835 19.761 14.4335 19.7781 12.2977C19.7886 10.9697 19.8515 9.64528 18.8789 8.53554C17.5875 7.06219 15.239 6.48105 13.1877 7.19638C11.3718 7.82964 10.3216 9.42941 10.2976 11.614C10.2924 12.1352 10.2838 12.6593 10.3301 13.1772C10.4206 14.2024 9.94241 14.5525 8.98759 14.4495C8.77487 14.4269 8.44319 14.1421 8.31613 14.603C10.5993 15.9573 10.7072 16.6825 9.01032 18.7099C8.3417 19.5086 7.45751 20.024 6.57495 20.7763C7.92559 20.7246 8.3076 22.3736 9.55796 22.3067C10.8055 22.2402 11.8354 22.6572 12.8312 23.3553C14.2468 24.3481 15.7253 24.3144 17.1957 23.4526C17.842 23.0729 18.4632 22.3785 19.1854 22.4717C20.9959 22.7048 22.0441 21.2401 23.7833 20.7529" fill="#231F33"/>
</svg>
