<svg width="30" height="30" viewBox="0 0 30 30" fill="none" xmlns="http://www.w3.org/2000/svg">
<circle cx="14.9624" cy="15.25" r="14.75" fill="#8F79EB"/>
<path d="M6.1123 21.9512C8.0051 22.1182 9.66285 21.6636 11.1964 20.557C10.8646 20.4723 10.5828 20.4143 10.3101 20.3279C9.28255 20.001 8.56872 19.3156 8.12386 18.3376C7.98648 18.0358 8.01668 18.0116 8.34277 18.0166C8.68044 18.0224 9.02391 18.0721 9.4249 17.9193C8.81038 17.7411 8.3196 17.4677 7.90371 17.0761C7.23664 16.4479 6.84103 15.6761 6.77151 14.7511C6.74296 14.3771 6.79013 14.3512 7.12036 14.5031C7.44396 14.6517 7.77791 14.749 8.18345 14.7515C7.93061 14.4589 7.65708 14.2468 7.46217 13.9613C6.68834 12.8289 6.55715 11.6304 7.09098 10.3632C7.23333 10.0259 7.29002 10.0134 7.53128 10.2868C8.7152 11.6284 10.1358 12.6139 11.8209 13.205C12.5641 13.4654 13.3284 13.6349 14.1105 13.7155C14.5119 13.7568 14.5467 13.7134 14.5004 13.3168C14.3357 11.9034 15.1285 10.4254 16.413 9.75038C17.7 9.07457 19.3494 9.26701 20.396 10.2325C20.6 10.4208 20.7945 10.4617 21.0506 10.3907C21.5969 10.2396 22.1245 10.0442 22.626 9.77667C22.703 9.73577 22.7713 9.6502 22.9178 9.70446C22.6778 10.4612 22.2027 11.0377 21.6019 11.5349C22.1936 11.4635 22.7469 11.2919 23.3196 11.0661C23.3328 11.2652 23.2161 11.3658 23.1338 11.4731C22.7816 11.9331 22.3898 12.3584 21.9246 12.7041C21.707 12.8656 21.6329 13.0514 21.637 13.3193C21.673 15.697 20.9166 17.8179 19.5067 19.6976C17.8324 21.9308 15.5829 23.1905 12.8339 23.527C10.5641 23.805 8.42677 23.3713 6.43839 22.2217C6.36597 22.18 6.29562 22.1336 6.22734 22.0856C6.20334 22.0689 6.18721 22.0405 6.1123 21.9512" fill="#231F33"/>
</svg>
